<?xml version="1.0" standalone="no"?><svg xmlns="http://www.w3.org/2000/svg" viewBox="0 0 1440 320"><path fill="aliceblue" fill-opacity="1" d="M0,192L26.7,192C53.3,192,107,192,160,181.3C213.3,171,267,149,320,165.3C373.3,181,427,235,480,240C533.3,245,587,203,640,176C693.3,149,747,139,800,128C853.3,117,907,107,960,117.3C1013.3,128,1067,160,1120,176C1173.3,192,1227,192,1280,186.7C1333.3,181,1387,171,1413,165.3L1440,160L1440,320L1413.3,320C1386.7,320,1333,320,1280,320C1226.7,320,1173,320,1120,320C1066.7,320,1013,320,960,320C906.7,320,853,320,800,320C746.7,320,693,320,640,320C586.7,320,533,320,480,320C426.7,320,373,320,320,320C266.7,320,213,320,160,320C106.7,320,53,320,27,320L0,320Z"></path></svg>